<svg width="25" height="25" viewBox="0 0 25 25" fill="none" xmlns="http://www.w3.org/2000/svg">
<path d="M12.5 21.875C14.9864 21.875 17.371 20.8873 19.1291 19.1291C20.8873 17.371 21.875 14.9864 21.875 12.5C21.875 10.0136 20.8873 7.62903 19.1291 5.87087C17.371 4.11272 14.9864 3.125 12.5 3.125C10.0136 3.125 7.62903 4.11272 5.87087 5.87087C4.11272 7.62903 3.125 10.0136 3.125 12.5C3.125 14.9864 4.11272 17.371 5.87087 19.1291C7.62903 20.8873 10.0136 21.875 12.5 21.875Z" stroke="black" stroke-width="2.08333" stroke-linecap="round" stroke-linejoin="round"/>
<path d="M15.625 16.6667L12.5 8.33337L9.375 16.6667M14.5833 14.5834H10.4167" stroke="black" stroke-width="2.08333" stroke-linecap="round" stroke-linejoin="round"/>
</svg>
