<svg width="20" height="23" viewBox="0 0 20 23" fill="none" xmlns="http://www.w3.org/2000/svg">
<mask id="path-1-inside-1_308_62" fill="white">
<path d="M1.51786 0.958603C1.51786 0.704444 1.4379 0.460694 1.29558 0.280976C1.15325 0.101258 0.960212 0.0002941 0.758931 0.0002941C0.55765 0.0002941 0.364613 0.101258 0.222286 0.280976C0.0799585 0.460694 0 0.704444 0 0.958603V22.0414C0 22.2956 0.0799585 22.5393 0.222286 22.719C0.364613 22.8988 0.55765 22.9997 0.758931 22.9997C0.960212 22.9997 1.15325 22.8988 1.29558 22.719C1.4379 22.5393 1.51786 22.2956 1.51786 22.0414V0.958603ZM7.83217 0.396395C6.65532 -0.621968 5.05954 0.439838 5.05954 2.2389V20.7598C5.05954 22.5653 6.66746 23.6271 7.84229 22.5959L18.4653 13.2658C18.7006 13.0592 18.8926 12.7834 19.0249 12.4624C19.1572 12.1413 19.2258 11.7845 19.2248 11.4225C19.2238 11.0606 19.1533 10.7044 19.0192 10.3845C18.8851 10.0646 18.6916 9.79057 18.4552 9.58594L7.83217 0.396395ZM6.5774 2.2389C6.57748 2.18083 6.5901 2.12388 6.6139 2.07419C6.6377 2.02449 6.67177 1.98393 6.71246 1.95686C6.75315 1.92979 6.79892 1.91724 6.84483 1.92056C6.89075 1.92387 6.93508 1.94293 6.97306 1.97569L17.5971 11.1678C17.631 11.197 17.6587 11.2363 17.6779 11.2821C17.6971 11.3279 17.7071 11.3789 17.7072 11.4307C17.7073 11.4825 17.6974 11.5335 17.6784 11.5795C17.6594 11.6254 17.6318 11.6648 17.5981 11.6942L6.97508 21.023C6.93716 21.0564 6.89271 21.0761 6.84658 21.0798C6.80044 21.0835 6.75437 21.0712 6.71338 21.0442C6.67239 21.0172 6.63804 20.9766 6.61407 20.9267C6.5901 20.8767 6.57741 20.8195 6.5774 20.7611V2.2389Z"/>
</mask>
<path d="M1.51786 0.958603C1.51786 0.704444 1.4379 0.460694 1.29558 0.280976C1.15325 0.101258 0.960212 0.0002941 0.758931 0.0002941C0.55765 0.0002941 0.364613 0.101258 0.222286 0.280976C0.0799585 0.460694 0 0.704444 0 0.958603V22.0414C0 22.2956 0.0799585 22.5393 0.222286 22.719C0.364613 22.8988 0.55765 22.9997 0.758931 22.9997C0.960212 22.9997 1.15325 22.8988 1.29558 22.719C1.4379 22.5393 1.51786 22.2956 1.51786 22.0414V0.958603ZM7.83217 0.396395C6.65532 -0.621968 5.05954 0.439838 5.05954 2.2389V20.7598C5.05954 22.5653 6.66746 23.6271 7.84229 22.5959L18.4653 13.2658C18.7006 13.0592 18.8926 12.7834 19.0249 12.4624C19.1572 12.1413 19.2258 11.7845 19.2248 11.4225C19.2238 11.0606 19.1533 10.7044 19.0192 10.3845C18.8851 10.0646 18.6916 9.79057 18.4552 9.58594L7.83217 0.396395ZM6.5774 2.2389C6.57748 2.18083 6.5901 2.12388 6.6139 2.07419C6.6377 2.02449 6.67177 1.98393 6.71246 1.95686C6.75315 1.92979 6.79892 1.91724 6.84483 1.92056C6.89075 1.92387 6.93508 1.94293 6.97306 1.97569L17.5971 11.1678C17.631 11.197 17.6587 11.2363 17.6779 11.2821C17.6971 11.3279 17.7071 11.3789 17.7072 11.4307C17.7073 11.4825 17.6974 11.5335 17.6784 11.5795C17.6594 11.6254 17.6318 11.6648 17.5981 11.6942L6.97508 21.023C6.93716 21.0564 6.89271 21.0761 6.84658 21.0798C6.80044 21.0835 6.75437 21.0712 6.71338 21.0442C6.67239 21.0172 6.63804 20.9766 6.61407 20.9267C6.5901 20.8767 6.57741 20.8195 6.5774 20.7611V2.2389Z" fill="#F4E8C5"/>
<path d="M1.51786 0.958603H21.5179H1.51786ZM0 0.958603H-20H0ZM0 22.0414H-20H0ZM1.51786 22.0414H21.5179H1.51786ZM7.83217 0.396395L-5.2549 15.5202L-5.25256 15.5222L7.83217 0.396395ZM7.84229 22.5959L21.0353 37.6274L21.0404 37.6229L7.84229 22.5959ZM18.4653 13.2658L31.6634 28.2928L31.6649 28.2915L18.4653 13.2658ZM18.4552 9.58594L31.5439 -5.53638L31.5399 -5.53986L18.4552 9.58594ZM6.5774 2.2389L-13.4226 2.21081L-13.4226 2.22486V2.2389H6.5774ZM6.97306 1.97569L20.0592 -13.1489L20.0471 -13.1594L20.035 -13.1698L6.97306 1.97569ZM17.5971 11.1678L4.51099 26.2924L4.5174 26.298L4.52382 26.3035L17.5971 11.1678ZM17.5981 11.6942L4.4471 -3.374L4.42404 -3.35387L4.40104 -3.33367L17.5981 11.6942ZM6.97508 21.023L-6.22198 5.99515L-6.23203 6.00398L-6.24208 6.01282L6.97508 21.023ZM6.5774 20.7611H-13.4226L-13.4226 20.7651L6.5774 20.7611ZM21.5179 0.958603C21.5179 -3.28387 20.2214 -8.03572 16.9743 -12.1358L-14.3832 12.6977C-17.3456 8.95711 -18.4821 4.69276 -18.4821 0.958603H21.5179ZM16.9743 -12.1358C13.6348 -16.3526 7.97052 -19.9997 0.758931 -19.9997V20.0003C-6.0501 20.0003 -11.3283 16.5551 -14.3832 12.6977L16.9743 -12.1358ZM0.758931 -19.9997C-6.45266 -19.9997 -12.117 -16.3526 -15.4565 -12.1358L15.9011 12.6977C12.8462 16.5551 7.56796 20.0003 0.758931 20.0003V-19.9997ZM-15.4565 -12.1358C-18.7035 -8.03572 -20 -3.28387 -20 0.958603H20C20 4.69276 18.8634 8.95711 15.9011 12.6977L-15.4565 -12.1358ZM-20 0.958603V22.0414H20V0.958603H-20ZM-20 22.0414C-20 26.2839 -18.7035 31.0357 -15.4565 35.1358L15.9011 10.3023C18.8635 14.0429 20 18.3073 20 22.0414H-20ZM-15.4565 35.1358C-12.117 39.3527 -6.45263 42.9997 0.758931 42.9997V2.99971C7.56793 2.99971 12.8462 6.44485 15.9011 10.3023L-15.4565 35.1358ZM0.758931 42.9997C7.97049 42.9997 13.6348 39.3527 16.9743 35.1358L-14.3832 10.3023C-11.3283 6.44485 -6.05007 2.99971 0.758931 2.99971V42.9997ZM16.9743 35.1358C20.2214 31.0357 21.5179 26.2839 21.5179 22.0414H-18.4821C-18.4821 18.3073 -17.3456 14.0429 -14.3832 10.3023L16.9743 35.1358ZM21.5179 22.0414V0.958603H-18.4821V22.0414H21.5179ZM20.9192 -14.7274C13.1851 -21.4199 2.56707 -21.4703 -5.06846 -16.3939C-11.9048 -11.8488 -14.9405 -4.45108 -14.9405 2.2389H25.0595C25.0595 7.12982 22.8218 13.0971 17.0775 16.9161C10.5341 21.2665 1.30237 21.1944 -5.2549 15.5202L20.9192 -14.7274ZM-14.9405 2.2389V20.7598H25.0595V2.2389H-14.9405ZM-14.9405 20.7598C-14.9405 27.4799 -11.8775 34.8988 -5.00672 39.4336C2.67051 44.5008 13.3256 44.3941 21.0353 37.6274L-5.35075 7.56452C-2.54801 5.10457 1.31706 3.27362 5.82157 3.0277C10.2176 2.78769 14.0981 4.11615 17.0274 6.04957C22.8006 9.85995 25.0595 15.8452 25.0595 20.7598H-14.9405ZM21.0404 37.6229L31.6634 28.2928L5.26722 -1.76115L-5.35579 7.56895L21.0404 37.6229ZM31.6649 28.2915C34.4517 25.8433 36.3421 22.9324 37.5167 20.0817L0.533134 4.84305C1.44314 2.63451 2.94943 0.274971 5.26565 -1.75978L31.6649 28.2915ZM37.5167 20.0817C38.6942 17.224 39.2327 14.2486 39.2247 11.3675L-0.775114 11.4775C-0.781046 9.32036 -0.379729 7.05853 0.533134 4.84305L37.5167 20.0817ZM39.2247 11.3675C39.2168 8.48665 38.662 5.51086 37.4651 2.65473L0.573322 18.1143C-0.355432 15.898 -0.769183 13.6346 -0.775114 11.4775L39.2247 11.3675ZM37.4651 2.65473C36.2711 -0.194551 34.3572 -3.10141 31.5439 -5.53638L5.36643 24.7083C3.02598 22.6825 1.49921 20.3238 0.573322 18.1143L37.4651 2.65473ZM31.5399 -5.53986L20.9169 -14.7294L-5.25256 15.5222L5.37045 24.7117L31.5399 -5.53986ZM26.5774 2.267C26.5735 5.02435 25.9851 7.92902 24.6524 10.712L-11.4246 -6.56365C-12.8049 -3.68126 -13.4185 -0.66269 -13.4226 2.21081L26.5774 2.267ZM24.6524 10.712C23.323 13.4883 21.1176 16.3951 17.7903 18.6086L-4.36536 -14.6949C-7.77401 -12.4273 -10.0476 -9.4393 -11.4246 -6.56365L24.6524 10.712ZM17.7903 18.6086C14.382 20.876 10.0635 22.2053 5.40343 21.8685L8.28623 -18.0274C3.53435 -18.3708 -0.875725 -17.0165 -4.36536 -14.6949L17.7903 18.6086ZM5.40343 21.8685C0.771951 21.5339 -3.17808 19.6315 -6.08885 17.1212L20.035 -13.1698C17.0482 -15.7457 13.0095 -17.6861 8.28623 -18.0274L5.40343 21.8685ZM-6.11304 17.1003L4.51099 26.2924L30.6832 -3.95683L20.0592 -13.1489L-6.11304 17.1003ZM4.52382 26.3035C1.97186 24.0993 0.27444 21.4997 -0.768287 19.0112L36.124 3.55292C35.0429 0.972781 33.29 -1.7052 30.6703 -3.96793L4.52382 26.3035ZM-0.768287 19.0112C-1.81383 16.5159 -2.28798 13.9418 -2.29273 11.4691L37.7072 11.3922C37.7022 8.81595 37.2079 6.13978 36.124 3.55292L-0.768287 19.0112ZM-2.29273 11.4691C-2.29748 8.99667 -1.83333 6.42318 -0.799879 3.92754L36.1567 19.2314C37.2282 16.6439 37.7121 13.9683 37.7072 11.3922L-2.29273 11.4691ZM-0.799879 3.92754C0.230704 1.43883 1.91289 -1.16223 4.4471 -3.374L30.7491 26.7624C33.3508 24.4918 35.0881 21.8119 36.1567 19.2314L-0.799879 3.92754ZM4.40104 -3.33367L-6.22198 5.99515L20.1721 36.0509L30.7952 26.7221L4.40104 -3.33367ZM-6.24208 6.01282C-3.35787 3.47315 0.582252 1.52178 5.23159 1.14512L8.46156 41.0145C13.2032 40.6304 17.2322 38.6397 20.1922 36.0333L-6.24208 6.01282ZM5.23159 1.14512C9.91324 0.765837 14.2698 2.0728 17.7147 4.34181L-4.28793 37.7467C-0.761077 40.0697 3.68764 41.4012 8.46156 41.0145L5.23159 1.14512ZM17.7147 4.34181C21.0763 6.556 23.3029 9.47842 24.6428 12.2684L-11.4146 29.585C-10.0268 32.4747 -7.73154 35.4785 -4.28793 37.7467L17.7147 4.34181ZM24.6428 12.2684C25.986 15.0654 26.5768 17.986 26.5774 20.7571L-13.4226 20.7651C-13.422 23.6529 -12.8058 26.6881 -11.4146 29.585L24.6428 12.2684ZM26.5774 20.7611V2.2389H-13.4226V20.7611H26.5774Z" fill="#F4E8C5" mask="url(#path-1-inside-1_308_62)"/>
<path d="M1.51786 0.958603H21.5179H1.51786ZM0 0.958603H-20H0ZM0 22.0414H-20H0ZM1.51786 22.0414H21.5179H1.51786ZM7.83217 0.396395L-5.2549 15.5202L-5.25256 15.5222L7.83217 0.396395ZM7.84229 22.5959L21.0353 37.6274L21.0404 37.6229L7.84229 22.5959ZM18.4653 13.2658L31.6634 28.2928L31.6649 28.2915L18.4653 13.2658ZM18.4552 9.58594L31.5439 -5.53638L31.5399 -5.53986L18.4552 9.58594ZM6.5774 2.2389L-13.4226 2.21081L-13.4226 2.22486V2.2389H6.5774ZM6.97306 1.97569L20.0592 -13.1489L20.0471 -13.1594L20.035 -13.1698L6.97306 1.97569ZM17.5971 11.1678L4.51099 26.2924L4.5174 26.298L4.52382 26.3035L17.5971 11.1678ZM17.5981 11.6942L4.4471 -3.374L4.42404 -3.35387L4.40104 -3.33367L17.5981 11.6942ZM6.97508 21.023L-6.22198 5.99515L-6.23203 6.00398L-6.24208 6.01282L6.97508 21.023ZM6.5774 20.7611H-13.4226L-13.4226 20.7651L6.5774 20.7611ZM21.5179 0.958603C21.5179 -3.28387 20.2214 -8.03572 16.9743 -12.1358L-14.3832 12.6977C-17.3456 8.95711 -18.4821 4.69276 -18.4821 0.958603H21.5179ZM16.9743 -12.1358C13.6348 -16.3526 7.97052 -19.9997 0.758931 -19.9997V20.0003C-6.0501 20.0003 -11.3283 16.5551 -14.3832 12.6977L16.9743 -12.1358ZM0.758931 -19.9997C-6.45266 -19.9997 -12.117 -16.3526 -15.4565 -12.1358L15.9011 12.6977C12.8462 16.5551 7.56796 20.0003 0.758931 20.0003V-19.9997ZM-15.4565 -12.1358C-18.7035 -8.03572 -20 -3.28387 -20 0.958603H20C20 4.69276 18.8634 8.95711 15.9011 12.6977L-15.4565 -12.1358ZM-20 0.958603V22.0414H20V0.958603H-20ZM-20 22.0414C-20 26.2839 -18.7035 31.0357 -15.4565 35.1358L15.9011 10.3023C18.8635 14.0429 20 18.3073 20 22.0414H-20ZM-15.4565 35.1358C-12.117 39.3527 -6.45263 42.9997 0.758931 42.9997V2.99971C7.56793 2.99971 12.8462 6.44485 15.9011 10.3023L-15.4565 35.1358ZM0.758931 42.9997C7.97049 42.9997 13.6348 39.3527 16.9743 35.1358L-14.3832 10.3023C-11.3283 6.44485 -6.05007 2.99971 0.758931 2.99971V42.9997ZM16.9743 35.1358C20.2214 31.0357 21.5179 26.2839 21.5179 22.0414H-18.4821C-18.4821 18.3073 -17.3456 14.0429 -14.3832 10.3023L16.9743 35.1358ZM21.5179 22.0414V0.958603H-18.4821V22.0414H21.5179ZM20.9192 -14.7274C13.1851 -21.4199 2.56707 -21.4703 -5.06846 -16.3939C-11.9048 -11.8488 -14.9405 -4.45108 -14.9405 2.2389H25.0595C25.0595 7.12982 22.8218 13.0971 17.0775 16.9161C10.5341 21.2665 1.30237 21.1944 -5.2549 15.5202L20.9192 -14.7274ZM-14.9405 2.2389V20.7598H25.0595V2.2389H-14.9405ZM-14.9405 20.7598C-14.9405 27.4799 -11.8775 34.8988 -5.00672 39.4336C2.67051 44.5008 13.3256 44.3941 21.0353 37.6274L-5.35075 7.56452C-2.54801 5.10457 1.31706 3.27362 5.82157 3.0277C10.2176 2.78769 14.0981 4.11615 17.0274 6.04957C22.8006 9.85995 25.0595 15.8452 25.0595 20.7598H-14.9405ZM21.0404 37.6229L31.6634 28.2928L5.26722 -1.76115L-5.35579 7.56895L21.0404 37.6229ZM31.6649 28.2915C34.4517 25.8433 36.3421 22.9324 37.5167 20.0817L0.533134 4.84305C1.44314 2.63451 2.94943 0.274971 5.26565 -1.75978L31.6649 28.2915ZM37.5167 20.0817C38.6942 17.224 39.2327 14.2486 39.2247 11.3675L-0.775114 11.4775C-0.781046 9.32036 -0.379729 7.05853 0.533134 4.84305L37.5167 20.0817ZM39.2247 11.3675C39.2168 8.48665 38.662 5.51086 37.4651 2.65473L0.573322 18.1143C-0.355432 15.898 -0.769183 13.6346 -0.775114 11.4775L39.2247 11.3675ZM37.4651 2.65473C36.2711 -0.194551 34.3572 -3.10141 31.5439 -5.53638L5.36643 24.7083C3.02598 22.6825 1.49921 20.3238 0.573322 18.1143L37.4651 2.65473ZM31.5399 -5.53986L20.9169 -14.7294L-5.25256 15.5222L5.37045 24.7117L31.5399 -5.53986ZM26.5774 2.267C26.5735 5.02435 25.9851 7.92902 24.6524 10.712L-11.4246 -6.56365C-12.8049 -3.68126 -13.4185 -0.66269 -13.4226 2.21081L26.5774 2.267ZM24.6524 10.712C23.323 13.4883 21.1176 16.3951 17.7903 18.6086L-4.36536 -14.6949C-7.77401 -12.4273 -10.0476 -9.4393 -11.4246 -6.56365L24.6524 10.712ZM17.7903 18.6086C14.382 20.876 10.0635 22.2053 5.40343 21.8685L8.28623 -18.0274C3.53435 -18.3708 -0.875725 -17.0165 -4.36536 -14.6949L17.7903 18.6086ZM5.40343 21.8685C0.771951 21.5339 -3.17808 19.6315 -6.08885 17.1212L20.035 -13.1698C17.0482 -15.7457 13.0095 -17.6861 8.28623 -18.0274L5.40343 21.8685ZM-6.11304 17.1003L4.51099 26.2924L30.6832 -3.95683L20.0592 -13.1489L-6.11304 17.1003ZM4.52382 26.3035C1.97186 24.0993 0.27444 21.4997 -0.768287 19.0112L36.124 3.55292C35.0429 0.972781 33.29 -1.7052 30.6703 -3.96793L4.52382 26.3035ZM-0.768287 19.0112C-1.81383 16.5159 -2.28798 13.9418 -2.29273 11.4691L37.7072 11.3922C37.7022 8.81595 37.2079 6.13978 36.124 3.55292L-0.768287 19.0112ZM-2.29273 11.4691C-2.29748 8.99667 -1.83333 6.42318 -0.799879 3.92754L36.1567 19.2314C37.2282 16.6439 37.7121 13.9683 37.7072 11.3922L-2.29273 11.4691ZM-0.799879 3.92754C0.230704 1.43883 1.91289 -1.16223 4.4471 -3.374L30.7491 26.7624C33.3508 24.4918 35.0881 21.8119 36.1567 19.2314L-0.799879 3.92754ZM4.40104 -3.33367L-6.22198 5.99515L20.1721 36.0509L30.7952 26.7221L4.40104 -3.33367ZM-6.24208 6.01282C-3.35787 3.47315 0.582252 1.52178 5.23159 1.14512L8.46156 41.0145C13.2032 40.6304 17.2322 38.6397 20.1922 36.0333L-6.24208 6.01282ZM5.23159 1.14512C9.91324 0.765837 14.2698 2.0728 17.7147 4.34181L-4.28793 37.7467C-0.761077 40.0697 3.68764 41.4012 8.46156 41.0145L5.23159 1.14512ZM17.7147 4.34181C21.0763 6.556 23.3029 9.47842 24.6428 12.2684L-11.4146 29.585C-10.0268 32.4747 -7.73154 35.4785 -4.28793 37.7467L17.7147 4.34181ZM24.6428 12.2684C25.986 15.0654 26.5768 17.986 26.5774 20.7571L-13.4226 20.7651C-13.422 23.6529 -12.8058 26.6881 -11.4146 29.585L24.6428 12.2684ZM26.5774 20.7611V2.2389H-13.4226V20.7611H26.5774Z" fill="black" fill-opacity="0.2" mask="url(#path-1-inside-1_308_62)"/>
</svg>
