<svg width="30" height="30" viewBox="0 0 30 30" fill="none" xmlns="http://www.w3.org/2000/svg">
<path d="M16.62 29.3888C14.8275 29.8388 13.1644 28.4813 13.0425 26.7263C12.9075 24.7575 12.6112 22.9481 12.24 21.87C12.0056 21.195 11.3419 19.9725 10.29 18.7988C9.24563 17.6288 7.88625 16.5881 6.29438 16.155C5.03438 15.81 3.75 14.7188 3.75 13.125V5.625C3.75 4.04063 5.02875 2.88 6.465 2.72625C8.47125 2.51438 9.3975 1.94813 10.3425 1.37063L10.4325 1.31625C10.9425 1.005 11.5162 0.661875 12.2513 0.40875C12.9956 0.15 13.8656 0 15 0L21.5625 0C23.3194 0 24.5606 0.89625 25.1887 1.995C25.4963 2.53313 25.665 3.13313 25.665 3.70688C25.665 3.99188 25.6219 4.29188 25.5206 4.57688C25.8975 5.06813 26.2331 5.65875 26.4356 6.26438C26.6419 6.88313 26.7581 7.69313 26.4431 8.42063C26.5725 8.66438 26.6681 8.92313 26.7413 9.17625C26.8856 9.6825 26.9531 10.2394 26.9531 10.7813C26.9531 11.3231 26.8856 11.88 26.7413 12.3863C26.6756 12.6113 26.5912 12.8438 26.4825 13.0669C27.2212 14.1375 27.2662 15.3169 26.9212 16.3163C26.535 17.4263 25.6425 18.3788 24.6712 18.7013C23.0831 19.2319 21.2906 19.2188 19.9538 19.0969C19.6762 19.0718 19.3993 19.0405 19.1231 19.0031C19.7743 21.7892 19.7344 24.6922 19.0069 27.4594C18.7481 28.4119 17.9756 29.0494 17.1094 29.2669L16.62 29.3888ZM21.5625 1.875H15C14.0437 1.875 13.3819 2.0025 12.8625 2.18063C12.3356 2.3625 11.9138 2.61 11.4075 2.9175L11.3325 2.96438C10.2919 3.59813 9.08625 4.33313 6.66375 4.59188C6.03937 4.6575 5.625 5.13563 5.625 5.62313V13.125C5.625 13.6031 6.04875 14.1431 6.7875 14.3438C8.84062 14.9063 10.4944 16.2131 11.6888 17.5481C12.8794 18.8794 13.6838 20.3138 14.01 21.255C14.4656 22.5675 14.7731 24.57 14.9137 26.5988C14.9606 27.2775 15.5888 27.7144 16.1644 27.57L16.6556 27.4481C16.9556 27.3731 17.1394 27.1781 17.1956 26.97C17.9617 24.0519 17.8673 20.9744 16.9237 18.1088C16.8708 17.9495 16.8616 17.779 16.897 17.6149C16.9325 17.4509 17.0113 17.2994 17.1253 17.1762C17.2392 17.0531 17.3842 16.9628 17.545 16.9147C17.7058 16.8667 17.8765 16.8627 18.0394 16.9031H18.045L18.0712 16.9106L18.18 16.935C18.8212 17.0708 19.4698 17.1691 20.1225 17.2294C21.3656 17.3419 22.8544 17.3306 24.0788 16.9238C24.4069 16.8131 24.9225 16.3594 25.1475 15.7031C25.3481 15.1256 25.3106 14.4469 24.6488 13.7888L23.9869 13.125L24.6488 12.4613C24.7294 12.3825 24.8456 12.1988 24.9375 11.8706C25.0275 11.5575 25.0781 11.1769 25.0781 10.7813C25.0781 10.3856 25.0275 10.005 24.9375 9.69188C24.8438 9.36563 24.7294 9.18 24.6488 9.10125L23.9869 8.4375L24.6488 7.77375C24.7369 7.68563 24.8531 7.44375 24.6581 6.85875C24.456 6.29332 24.1328 5.77884 23.7113 5.35125L23.0494 4.6875L23.7113 4.02375C23.7225 4.01438 23.7881 3.93 23.7881 3.705C23.7768 3.43105 23.699 3.16397 23.5613 2.92688C23.25 2.385 22.6181 1.875 21.5625 1.875Z" fill="#444977"/>
</svg>
