<svg width="21" height="20" viewBox="0 0 21 20" fill="none" xmlns="http://www.w3.org/2000/svg">
<path d="M17.7913 2.66683H15.708V1.75016C15.708 1.50705 15.5983 1.27389 15.4029 1.10198C15.2076 0.930073 14.9426 0.833496 14.6663 0.833496C14.3901 0.833496 14.1251 0.930073 13.9298 1.10198C13.7344 1.27389 13.6247 1.50705 13.6247 1.75016V2.66683H7.37467V1.75016C7.37467 1.50705 7.26493 1.27389 7.06958 1.10198C6.87423 0.930073 6.60927 0.833496 6.33301 0.833496C6.05674 0.833496 5.79179 0.930073 5.59644 1.10198C5.40109 1.27389 5.29134 1.50705 5.29134 1.75016V2.66683H3.20801C2.37921 2.66683 1.58435 2.95656 0.998299 3.47229C0.412248 3.98801 0.0830078 4.68748 0.0830078 5.41683V16.4168C0.0830078 17.1462 0.412248 17.8456 0.998299 18.3614C1.58435 18.8771 2.37921 19.1668 3.20801 19.1668H17.7913C18.6201 19.1668 19.415 18.8771 20.001 18.3614C20.5871 17.8456 20.9163 17.1462 20.9163 16.4168V5.41683C20.9163 4.68748 20.5871 3.98801 20.001 3.47229C19.415 2.95656 18.6201 2.66683 17.7913 2.66683ZM18.833 16.4168C18.833 16.6599 18.7233 16.8931 18.5279 17.065C18.3326 17.2369 18.0676 17.3335 17.7913 17.3335H3.20801C2.93174 17.3335 2.66679 17.2369 2.47144 17.065C2.27609 16.8931 2.16634 16.6599 2.16634 16.4168V10.0002H18.833V16.4168ZM18.833 8.16683H2.16634V5.41683C2.16634 5.17371 2.27609 4.94056 2.47144 4.76865C2.66679 4.59674 2.93174 4.50016 3.20801 4.50016H5.29134V5.41683C5.29134 5.65994 5.40109 5.8931 5.59644 6.06501C5.79179 6.23692 6.05674 6.3335 6.33301 6.3335C6.60927 6.3335 6.87423 6.23692 7.06958 6.06501C7.26493 5.8931 7.37467 5.65994 7.37467 5.41683V4.50016H13.6247V5.41683C13.6247 5.65994 13.7344 5.8931 13.9298 6.06501C14.1251 6.23692 14.3901 6.3335 14.6663 6.3335C14.9426 6.3335 15.2076 6.23692 15.4029 6.06501C15.5983 5.8931 15.708 5.65994 15.708 5.41683V4.50016H17.7913C18.0676 4.50016 18.3326 4.59674 18.5279 4.76865C18.7233 4.94056 18.833 5.17371 18.833 5.41683V8.16683Z" fill="#1D1C40"/>
</svg>
