<svg width="30" height="30" viewBox="0 0 30 30" fill="none" xmlns="http://www.w3.org/2000/svg">
<g clip-path="url(#clip0_203_44)">
<path d="M16.9575 2.74836C16.8356 0.993362 15.1725 -0.362263 13.38 0.0858612L12.8906 0.207737C12.4418 0.312977 12.0293 0.53619 11.6957 0.854294C11.3621 1.1724 11.1196 1.57384 10.9931 2.01711C10.5806 3.54711 9.99375 6.72711 10.8769 10.4734C10.6206 10.4359 10.3437 10.404 10.0462 10.3777C8.70937 10.2559 6.91687 10.2446 5.32875 10.7734C4.3575 11.0977 3.465 12.0484 3.07875 13.1584C2.88599 13.6958 2.82524 14.2717 2.90159 14.8375C2.97795 15.4033 3.18918 15.9425 3.5175 16.4096C3.40875 16.6309 3.32437 16.8634 3.25875 17.0884C3.11437 17.5946 3.04687 18.1534 3.04687 18.6934C3.04687 19.2371 3.11437 19.7921 3.25875 20.3002C3.33107 20.5622 3.43166 20.8156 3.55875 21.0559C3.24187 21.7815 3.35812 22.5934 3.56437 23.2102C3.77683 23.8182 4.08578 24.388 4.47937 24.8977C4.37812 25.1846 4.33687 25.4846 4.33687 25.7696C4.34491 26.371 4.50832 26.96 4.81125 27.4796C5.4375 28.5802 6.68062 29.4746 8.4375 29.4746L15 29.4746C16.1344 29.4746 17.0062 29.3246 17.7487 29.0677C18.3874 28.8343 18.9975 28.5292 19.5675 28.1584L19.6575 28.104C20.6025 27.5265 21.5306 26.9602 23.535 26.7484C24.9712 26.5965 26.25 25.4359 26.25 23.8515V16.3515C26.25 14.7559 24.9656 13.6646 23.7056 13.3215C22.1137 12.8865 20.7544 11.8459 19.7081 10.6777C18.6581 9.50399 17.9944 8.27774 17.76 7.60649C17.3869 6.52836 17.0925 4.71899 16.9575 2.74836Z" fill="#444977"/>
</g>
<defs>
<clipPath id="clip0_203_44">
<rect width="30" height="30" fill="white" transform="matrix(-1 0 0 -1 30 30)"/>
</clipPath>
</defs>
</svg>
