<svg width="46" height="48" viewBox="0 0 46 48" fill="none" xmlns="http://www.w3.org/2000/svg">
<path d="M22.875 6C13.5552 6 6 13.891 6 23.625C6 33.3591 13.5552 41.25 22.875 41.25C32.1949 41.25 39.75 33.3591 39.75 23.625C39.75 13.891 32.1949 6 22.875 6Z" fill="white" stroke="black" stroke-opacity="0.95"/>
<path d="M22.875 23.625C25.9817 23.625 28.5 20.9948 28.5 17.75C28.5 14.5053 25.9817 11.875 22.875 11.875C19.7683 11.875 17.25 14.5053 17.25 17.75C17.25 20.9948 19.7683 23.625 22.875 23.625Z" fill="white" stroke="black" stroke-opacity="0.95" stroke-width="3"/>
<path d="M11.625 36.7621C11.625 33.5902 13.822 29.5 17.25 29.5H28.5C31.9281 29.5 34.125 33.5902 34.125 36.7621" fill="white"/>
<path d="M11.625 36.7621C11.625 33.5902 13.822 29.5 17.25 29.5H28.5C31.9281 29.5 34.125 33.5902 34.125 36.7621" stroke="black" stroke-opacity="0.95" stroke-width="3"/>
</svg>
