<svg width="20" height="20" viewBox="0 0 20 20" fill="none" xmlns="http://www.w3.org/2000/svg">
<path d="M19.8685 18.2399C18.599 15.9302 16.6166 14.1306 14.2405 13.1307C15.4221 12.212 16.2949 10.9313 16.7353 9.46989C17.1757 8.00848 17.1613 6.44047 16.6943 4.98799C16.2272 3.5355 15.3311 2.27217 14.1329 1.37695C12.9346 0.48173 11.4951 0 10.018 0C8.54103 0 7.10145 0.48173 5.90323 1.37695C4.70501 2.27217 3.80889 3.5355 3.34182 4.98799C2.87474 6.44047 2.86039 8.00848 3.30079 9.46989C3.74119 10.9313 4.61401 12.212 5.79563 13.1307C3.41952 14.1306 1.43713 15.9302 0.167591 18.2399C0.0889252 18.371 0.0364949 18.5172 0.013417 18.6697C-0.00966096 18.8223 -0.0029156 18.9781 0.0332522 19.1279C0.06942 19.2776 0.134272 19.4184 0.223952 19.5416C0.313633 19.6649 0.426311 19.7683 0.555288 19.8455C0.684266 19.9228 0.826909 19.9723 0.974738 19.9913C1.12257 20.0102 1.27257 19.9982 1.41581 19.9559C1.55906 19.9135 1.69264 19.8418 1.8086 19.7449C1.92456 19.6479 2.02054 19.5278 2.09083 19.3917C3.76868 16.3855 6.73178 14.5925 10.018 14.5925C13.3043 14.5925 16.2674 16.3864 17.9453 19.3917C18.0976 19.6456 18.3392 19.8282 18.619 19.9008C18.8989 19.9734 19.1949 19.9303 19.4447 19.7808C19.6945 19.6312 19.8783 19.3868 19.9574 19.0992C20.0365 18.8117 20.0046 18.5035 19.8685 18.2399ZM5.20301 7.29769C5.20301 6.31053 5.4854 5.34553 6.01449 4.52474C6.54357 3.70394 7.29558 3.06421 8.17541 2.68643C9.05524 2.30866 10.0234 2.20982 10.9574 2.40241C11.8914 2.59499 12.7494 3.07036 13.4228 3.76839C14.0962 4.46642 14.5548 5.35576 14.7406 6.32396C14.9264 7.29215 14.831 8.29571 14.4666 9.20773C14.1021 10.1198 13.485 10.8993 12.6931 11.4477C11.9013 11.9961 10.9704 12.2889 10.018 12.2889C8.74147 12.2874 7.5176 11.761 6.61492 10.8253C5.71225 9.88961 5.20448 8.62097 5.20301 7.29769Z" fill="#1D1C40"/>
</svg>
