<svg width="38" height="38" viewBox="0 0 38 38" fill="none" xmlns="http://www.w3.org/2000/svg">
<circle cx="19" cy="19" r="18.5" fill="white" stroke="#00030E"/>
<path d="M19 24C18.337 24 17.7011 23.7366 17.2322 23.2678C16.7634 22.7989 16.5 22.163 16.5 21.5C16.5 20.1125 17.6125 19 19 19C19.663 19 20.2989 19.2634 20.7678 19.7322C21.2366 20.2011 21.5 20.837 21.5 21.5C21.5 22.163 21.2366 22.7989 20.7678 23.2678C20.2989 23.7366 19.663 24 19 24ZM26.5 27.75V15.25H11.5V27.75H26.5ZM26.5 12.75C27.163 12.75 27.7989 13.0134 28.2678 13.4822C28.7366 13.9511 29 14.587 29 15.25V27.75C29 28.413 28.7366 29.0489 28.2678 29.5178C27.7989 29.9866 27.163 30.25 26.5 30.25H11.5C10.837 30.25 10.2011 29.9866 9.73223 29.5178C9.26339 29.0489 9 28.413 9 27.75V15.25C9 13.8625 10.1125 12.75 11.5 12.75H12.75V10.25C12.75 8.5924 13.4085 7.00269 14.5806 5.83058C15.7527 4.65848 17.3424 4 19 4C19.8208 4 20.6335 4.16166 21.3918 4.47575C22.1501 4.78984 22.8391 5.25022 23.4194 5.83058C23.9998 6.41095 24.4602 7.09994 24.7742 7.85823C25.0883 8.61651 25.25 9.42924 25.25 10.25V12.75H26.5ZM19 6.5C18.0054 6.5 17.0516 6.89509 16.3483 7.59835C15.6451 8.30161 15.25 9.25544 15.25 10.25V12.75H22.75V10.25C22.75 9.25544 22.3549 8.30161 21.6517 7.59835C20.9484 6.89509 19.9946 6.5 19 6.5Z" fill="black" fill-opacity="0.93"/>
</svg>
