<svg width="25" height="25" viewBox="0 0 25 25" fill="none" xmlns="http://www.w3.org/2000/svg">
<path d="M17.707 3.1257C17.9723 2.8122 18.3005 2.55701 18.6706 2.37641C19.0407 2.19581 19.4446 2.09376 19.8567 2.07676C20.2687 2.05976 20.6798 2.12818 21.0637 2.27767C21.4476 2.42716 21.7959 2.65443 22.0865 2.945C22.3771 3.23557 22.6035 3.58306 22.7513 3.96533C22.8992 4.3476 22.9652 4.75626 22.9452 5.16527C22.9251 5.57427 22.8195 5.97465 22.635 6.34088C22.4506 6.70711 22.1913 7.03116 21.8737 7.29237L7.8112 21.3549L2.08203 22.9174L3.64453 17.1882L17.707 3.1257Z" stroke="white" stroke-width="2.08333" stroke-linecap="round" stroke-linejoin="round"/>
</svg>
