<svg width="17" height="16" viewBox="0 0 17 16" fill="none" xmlns="http://www.w3.org/2000/svg">
<path d="M8.5 12.1905C7.93641 12.1905 7.39591 12.0299 6.9974 11.7442C6.59888 11.4584 6.375 11.0708 6.375 10.6667C6.375 9.82095 7.32062 9.14286 8.5 9.14286C9.06359 9.14286 9.60409 9.3034 10.0026 9.58917C10.4011 9.87494 10.625 10.2625 10.625 10.6667C10.625 11.0708 10.4011 11.4584 10.0026 11.7442C9.60409 12.0299 9.06359 12.1905 8.5 12.1905ZM14.875 14.4762V6.85714H2.125V14.4762H14.875ZM14.875 5.33333C15.4386 5.33333 15.9791 5.49388 16.3776 5.77965C16.7761 6.06542 17 6.453 17 6.85714V14.4762C17 14.8803 16.7761 15.2679 16.3776 15.5537C15.9791 15.8395 15.4386 16 14.875 16H2.125C1.56141 16 1.02091 15.8395 0.622398 15.5537C0.223883 15.2679 0 14.8803 0 14.4762V6.85714C0 6.01143 0.945625 5.33333 2.125 5.33333H3.1875V3.80952C3.1875 2.79918 3.74721 1.83021 4.74349 1.11578C5.73978 0.401359 7.09104 0 8.5 0C9.19765 0 9.88846 0.0985363 10.533 0.289983C11.1775 0.481429 11.7632 0.762037 12.2565 1.11578C12.7498 1.46953 13.1411 1.88949 13.4081 2.35168C13.6751 2.81387 13.8125 3.30925 13.8125 3.80952V5.33333H14.875ZM8.5 1.52381C7.65462 1.52381 6.84387 1.76463 6.2461 2.19328C5.64832 2.62193 5.3125 3.20331 5.3125 3.80952V5.33333H11.6875V3.80952C11.6875 3.20331 11.3517 2.62193 10.7539 2.19328C10.1561 1.76463 9.34538 1.52381 8.5 1.52381Z" fill="#1D1C40"/>
</svg>
