<svg width="25" height="25" viewBox="0 0 25 25" fill="none" xmlns="http://www.w3.org/2000/svg">
<path d="M3.125 12.5C3.125 13.7311 3.36749 14.9502 3.83863 16.0877C4.30977 17.2251 5.00032 18.2586 5.87087 19.1291C6.74142 19.9997 7.77492 20.6902 8.91234 21.1614C10.0498 21.6325 11.2689 21.875 12.5 21.875C13.7311 21.875 14.9502 21.6325 16.0877 21.1614C17.2251 20.6902 18.2586 19.9997 19.1291 19.1291C19.9997 18.2586 20.6902 17.2251 21.1614 16.0877C21.6325 14.9502 21.875 13.7311 21.875 12.5C21.875 11.2689 21.6325 10.0498 21.1614 8.91234C20.6902 7.77492 19.9997 6.74142 19.1291 5.87087C18.2586 5.00032 17.2251 4.30977 16.0877 3.83863C14.9502 3.36749 13.7311 3.125 12.5 3.125C11.2689 3.125 10.0498 3.36749 8.91234 3.83863C7.77492 4.30977 6.74142 5.00032 5.87087 5.87087C5.00032 6.74142 4.30977 7.77492 3.83863 8.91234C3.36749 10.0498 3.125 11.2689 3.125 12.5Z" stroke="black" stroke-width="2.08333" stroke-linecap="round" stroke-linejoin="round"/>
<path d="M13.542 15.625L14.5837 16.6667M12.5003 8.33337C13.0529 8.33337 13.5828 8.55287 13.9735 8.94357C14.3642 9.33427 14.5837 9.86417 14.5837 10.4167V14.5834C14.5837 15.1359 14.3642 15.6658 13.9735 16.0565C13.5828 16.4472 13.0529 16.6667 12.5003 16.6667C11.9478 16.6667 11.4179 16.4472 11.0272 16.0565C10.6365 15.6658 10.417 15.1359 10.417 14.5834V10.4167C10.417 9.86417 10.6365 9.33427 11.0272 8.94357C11.4179 8.55287 11.9478 8.33337 12.5003 8.33337Z" stroke="black" stroke-width="2.08333" stroke-linecap="round" stroke-linejoin="round"/>
</svg>
