<svg width="21" height="23" viewBox="0 0 21 23" fill="none" xmlns="http://www.w3.org/2000/svg">
<path d="M8.08333 0.75C10.0946 0.75 12.0234 1.60602 13.4456 3.12976C14.8677 4.65349 15.6667 6.72012 15.6667 8.875C15.6667 10.8875 14.9783 12.7375 13.8467 14.1625L14.1617 14.5H15.0833L20.9167 20.75L19.1667 22.625L13.3333 16.375V15.3875L13.0183 15.05C11.6423 16.3085 9.89249 16.9999 8.08333 17C6.07211 17 4.14326 16.144 2.72111 14.6202C1.29896 13.0965 0.5 11.0299 0.5 8.875C0.5 6.72012 1.29896 4.65349 2.72111 3.12976C4.14326 1.60602 6.07211 0.75 8.08333 0.75ZM8.08333 3.25C5.16667 3.25 2.83333 5.75 2.83333 8.875C2.83333 12 5.16667 14.5 8.08333 14.5C11 14.5 13.3333 12 13.3333 8.875C13.3333 5.75 11 3.25 8.08333 3.25Z" fill="black"/>
</svg>
