<svg width="18" height="19" viewBox="0 0 18 19" fill="none" xmlns="http://www.w3.org/2000/svg">
<path d="M6.67842 18.251L6.34673 15.4509C6.16706 15.3779 5.9979 15.2904 5.83924 15.1883C5.68058 15.0863 5.52496 14.9769 5.37238 14.8602L2.9054 15.954L0.625 11.7975L2.76028 10.0912C2.74646 9.98908 2.73955 9.89079 2.73955 9.79628V9.20562C2.73955 9.11053 2.74646 9.01194 2.76028 8.90985L0.625 7.2035L2.9054 3.04701L5.37238 4.14082C5.5244 4.02415 5.68334 3.91477 5.84919 3.81268C6.01503 3.71059 6.18088 3.62308 6.34673 3.55016L6.67842 0.75H11.2392L11.5709 3.55016C11.7506 3.62308 11.92 3.71059 12.0792 3.81268C12.2385 3.91477 12.3938 4.02415 12.5453 4.14082L15.0122 3.04701L17.2926 7.2035L15.1574 8.90985C15.1712 9.01194 15.1781 9.11053 15.1781 9.20562V9.7954C15.1781 9.89049 15.1643 9.98908 15.1366 10.0912L17.2719 11.7975L14.9915 15.954L12.5453 14.8602C12.3932 14.9769 12.2343 15.0863 12.0685 15.1883C11.9026 15.2904 11.7368 15.3779 11.5709 15.4509L11.2392 18.251H6.67842ZM8.12959 16.5009H9.76733L10.0576 14.182C10.486 14.0654 10.8835 13.8941 11.25 13.6684C11.6165 13.4426 11.9515 13.169 12.255 12.8476L14.3074 13.7445L15.1159 12.2569L13.333 10.835C13.4021 10.6308 13.4505 10.4158 13.4782 10.1901C13.5058 9.96429 13.5196 9.73444 13.5196 9.50051C13.5196 9.26717 13.5058 9.03761 13.4782 8.81185C13.4505 8.58608 13.4021 8.37082 13.333 8.16606L15.1159 6.7441L14.3074 5.25651L12.255 6.17532C11.951 5.83988 11.616 5.55928 11.25 5.33352C10.884 5.10775 10.4866 4.93624 10.0576 4.81899L9.78806 2.5001H8.15032L7.86009 4.81899C7.43165 4.93566 7.03444 5.10717 6.66847 5.33352C6.3025 5.55986 5.96722 5.83317 5.66261 6.15344L3.61025 5.25651L2.80174 6.7441L4.5846 8.14418C4.5155 8.36295 4.46713 8.58171 4.43949 8.80047C4.41185 9.01923 4.39802 9.25258 4.39802 9.50051C4.39802 9.73386 4.41185 9.95991 4.43949 10.1787C4.46713 10.3974 4.5155 10.6162 4.5846 10.835L2.80174 12.2569L3.61025 13.7445L5.66261 12.8257C5.96666 13.1611 6.30195 13.442 6.66847 13.6684C7.035 13.8947 7.4322 14.0659 7.86009 14.182L8.12959 16.5009ZM9.00029 12.5632C9.80188 12.5632 10.486 12.2642 11.0526 11.6663C11.6193 11.0683 11.9026 10.3464 11.9026 9.50051C11.9026 8.65463 11.6193 7.93271 11.0526 7.33476C10.486 6.73681 9.80188 6.43783 9.00029 6.43783C8.18487 6.43783 7.49716 6.73681 6.93715 7.33476C6.37713 7.93271 6.09741 8.65463 6.09796 9.50051C6.09796 10.3464 6.37796 11.0683 6.93797 11.6663C7.49798 12.2642 8.18542 12.5632 9.00029 12.5632Z" fill="#3D3D3D"/>
</svg>
