<svg width="18" height="18" viewBox="0 0 18 18" fill="none" xmlns="http://www.w3.org/2000/svg">
<path d="M2.24994 14.25H15.7499C15.8866 14.2496 16.0206 14.2119 16.1375 14.141C16.2543 14.0701 16.3496 13.9686 16.4131 13.8476C16.4766 13.7266 16.5059 13.5905 16.4978 13.4541C16.4897 13.3176 16.4445 13.186 16.3672 13.0733L9.61719 3.32327C9.33744 2.91902 8.66394 2.91902 8.38344 3.32327L1.63344 13.0733C1.55531 13.1857 1.50949 13.3174 1.50097 13.4541C1.49244 13.5908 1.52153 13.7272 1.58508 13.8485C1.64863 13.9698 1.7442 14.0713 1.86142 14.1421C1.97863 14.2129 2.11301 14.2502 2.24994 14.25Z" fill="#1D1C40"/>
</svg>
